<?xml version="1.0" encoding="utf-8"?>
<!-- Generator: Adobe Illustrator 21.0.0, SVG Export Plug-In . SVG Version: 6.00 Build 0)  -->
<svg version="1.1" id="Layer_1" xmlns="http://www.w3.org/2000/svg" xmlns:xlink="http://www.w3.org/1999/xlink" x="0px" y="0px"
	 viewBox="0 0 708 437" style="enable-background:new 0 0 708 437;" xml:space="preserve">
<path d="M669.4,105.9H39c-21.5,0-39-17.5-39-39V39C0,17.5,17.5,0,39,0l630.4,0c21.5,0,39,17.5,39,39v27.9
	C708.4,88.4,691,105.9,669.4,105.9z"/>
<path d="M669.4,271.4H39c-21.5,0-39-17.5-39-39v-27.9c0-21.5,17.5-39,39-39h630.4c21.5,0,39,17.5,39,39v27.9
	C708.4,254,691,271.4,669.4,271.4z"/>
<path d="M669.4,437H39c-21.5,0-39-17.5-39-39v-27.9c0-21.5,17.5-39,39-39h630.4c21.5,0,39,17.5,39,39V398
	C708.4,419.5,691,437,669.4,437z"/>
</svg>
