<?xml version="1.0" encoding="utf-8"?>
<!-- Generator: Adobe Illustrator 21.0.0, SVG Export Plug-In . SVG Version: 6.00 Build 0)  -->
<svg version="1.1" id="Layer_1" xmlns="http://www.w3.org/2000/svg" xmlns:xlink="http://www.w3.org/1999/xlink" x="0px" y="0px"
	 viewBox="0 0 550 550" style="enable-background:new 0 0 550 550;" xml:space="preserve">
<path d="M459.7,535.2L13.9,89.5c-15.2-15.2-15.2-39.9,0-55.2l19.7-19.7c15.2-15.2,39.9-15.2,55.2,0l445.8,445.8
	c15.2,15.2,15.2,39.9,0,55.2l-19.7,19.7C499.6,550.5,474.9,550.5,459.7,535.2z"/>
<path d="M534.5,89.5L88.8,535.2c-15.2,15.2-39.9,15.2-55.2,0l-19.7-19.7c-15.2-15.2-15.2-39.9,0-55.2L459.7,14.6
	c15.2-15.2,39.9-15.2,55.2,0l19.7,19.7C549.8,49.5,549.8,74.2,534.5,89.5z"/>
</svg>
